<?xml version="1.0" standalone="no"?>
<!DOCTYPE svg PUBLIC "-//W3C//DTD SVG 20010904//EN"
 "http://www.w3.org/TR/2001/REC-SVG-20010904/DTD/svg10.dtd">
<svg version="1.0" xmlns="http://www.w3.org/2000/svg"
 width="500.000000pt" height="500.000000pt" viewBox="0 0 500.000000 500.000000"
 preserveAspectRatio="xMidYMid meet">

<g transform="translate(0.000000,500.000000) scale(0.100000,-0.100000)"
fill="#000000" stroke="none">
<path d="M1912 3613 c-5 -10 -20 -49 -32 -88 -13 -38 -32 -88 -43 -110 -11
-22 -140 -337 -287 -700 l-267 -660 190 -3 c104 -1 192 0 194 2 3 3 31 74 62
158 l57 153 301 3 301 2 45 -124 c25 -68 49 -140 52 -160 l7 -36 318 0 317 0
6 49 c11 92 62 160 152 202 33 16 70 29 83 29 15 0 22 6 22 20 0 20 -7 20
-270 20 l-270 0 0 630 0 630 -180 0 -180 0 0 -282 c-1 -240 -3 -279 -14 -258
-7 14 -60 141 -117 283 l-103 257 -168 0 c-149 0 -168 -2 -176 -17z m267 -701
c44 -117 81 -218 81 -223 0 -5 -74 -9 -176 -9 -164 0 -176 1 -170 18 101 268
171 440 177 435 3 -5 43 -104 88 -221z"/>
<path d="M3338 2153 c-33 -21 -48 -53 -48 -102 0 -99 124 -146 192 -73 32 34
40 68 27 116 -18 66 -108 98 -171 59z"/>
<path d="M1651 1766 c-17 -41 -31 -77 -31 -80 0 -13 31 -5 36 9 4 10 20 15 44
15 24 0 40 -5 44 -15 5 -14 36 -22 36 -9 0 3 -14 39 -31 80 -22 53 -36 74 -49
74 -13 0 -27 -21 -49 -74z m63 -1 c4 -10 -1 -15 -14 -15 -13 0 -18 5 -14 15 4
8 10 15 14 15 4 0 10 -7 14 -15z"/>
<path d="M1830 1777 c0 -71 17 -97 63 -97 43 0 57 24 57 96 0 50 -3 64 -15 64
-11 0 -15 -13 -15 -54 0 -35 -5 -58 -15 -66 -26 -22 -45 5 -45 66 0 41 -4 54
-15 54 -12 0 -15 -14 -15 -63z"/>
<path d="M2010 1760 c0 -64 3 -80 15 -80 10 0 15 10 15 30 0 17 4 30 10 30 5
0 19 -13 32 -30 12 -16 30 -30 41 -30 18 0 17 3 -7 34 -22 29 -23 36 -11 46
38 32 4 80 -56 80 l-39 0 0 -80z m75 35 c0 -5 -10 -11 -22 -13 -16 -2 -23 2
-23 13 0 11 7 15 23 13 12 -2 22 -7 22 -13z"/>
<path d="M2190 1760 l0 -80 50 0 c37 0 50 4 50 14 0 9 -12 16 -32 18 -41 4
-45 32 -5 36 39 5 36 32 -4 32 -41 0 -33 24 9 28 20 2 32 9 32 18 0 10 -13 14
-50 14 l-50 0 0 -80z"/>
<path d="M2340 1760 l0 -80 50 0 c38 0 50 4 50 15 0 10 -10 15 -30 15 l-30 0
0 65 c0 58 -2 65 -20 65 -18 0 -20 -7 -20 -80z"/>
<path d="M2495 1760 c0 -73 2 -80 20 -80 18 0 20 7 20 80 0 73 -2 80 -20 80
-18 0 -20 -7 -20 -80z"/>
<path d="M2600 1760 l0 -80 50 0 c38 0 50 4 50 15 0 10 -11 15 -35 15 -28 0
-35 4 -35 20 0 16 7 20 30 20 20 0 30 5 30 15 0 10 -10 15 -30 15 -20 0 -30 5
-30 15 0 10 11 15 35 15 24 0 35 5 35 15 0 11 -12 15 -50 15 l-50 0 0 -80z"/>
<path d="M2840 1760 l0 -80 50 0 c38 0 50 4 50 15 0 10 -11 15 -35 15 l-35 0
0 65 c0 51 -3 65 -15 65 -12 0 -15 -16 -15 -80z"/>
<path d="M2980 1760 l0 -80 50 0 c38 0 50 4 50 15 0 10 -10 15 -30 15 -23 0
-30 4 -30 20 0 15 7 20 25 20 16 0 25 6 25 15 0 9 -9 15 -25 15 -16 0 -25 6
-25 15 0 10 10 15 30 15 20 0 30 5 30 15 0 11 -12 15 -50 15 l-50 0 0 -80z"/>
<path d="M3140 1761 c0 -65 3 -81 15 -81 10 0 15 11 15 35 0 32 2 35 30 35 20
0 30 5 30 15 0 10 -10 15 -30 15 -20 0 -30 5 -30 15 0 11 11 15 36 15 54 0 37
24 -19 28 l-47 3 0 -80z"/>
<path d="M3280 1760 l0 -80 50 0 c37 0 50 4 50 14 0 9 -12 16 -32 18 -41 4
-45 32 -5 36 39 5 36 32 -4 32 -41 0 -33 24 9 28 20 2 32 9 32 18 0 10 -13 14
-50 14 l-50 0 0 -80z"/>
</g>
</svg>
